<?xml version="1.0" standalone="no"?>
<!DOCTYPE svg PUBLIC "-//W3C//DTD SVG 20010904//EN"
 "http://www.w3.org/TR/2001/REC-SVG-20010904/DTD/svg10.dtd">
<svg version="1.0" xmlns="http://www.w3.org/2000/svg"
 width="2748.000000pt" height="2748.000000pt" viewBox="0 0 2748.000000 2748.000000"
 preserveAspectRatio="xMidYMid meet">
<metadata>
Created by potrace 1.14, written by Peter Selinger 2001-2017
</metadata>
<g transform="translate(0.000000,2748.000000) scale(0.100000,-0.100000)"
fill="#000000" stroke="none">
<path d="M13308 27465 c-2 -2 -79 -6 -173 -10 -93 -4 -186 -8 -205 -10 -19 -2
-84 -6 -145 -10 -109 -6 -154 -10 -270 -20 -123 -11 -214 -21 -335 -35 -47 -5
-106 -12 -132 -15 -26 -3 -63 -7 -82 -10 -20 -3 -51 -7 -68 -9 -18 -3 -53 -7
-78 -11 -25 -3 -58 -8 -75 -10 -25 -3 -220 -34 -315 -50 -14 -2 -41 -7 -60
-10 -19 -3 -42 -8 -50 -10 -8 -2 -35 -7 -60 -10 -25 -4 -76 -13 -115 -21 -38
-8 -86 -17 -105 -20 -19 -3 -48 -9 -65 -14 -16 -5 -55 -14 -85 -19 -30 -6 -66
-14 -80 -17 -14 -3 -34 -7 -45 -8 -20 -4 -61 -13 -285 -67 -274 -66 -682 -181
-930 -262 -52 -17 -99 -32 -105 -33 -99 -24 -860 -309 -1050 -394 -22 -10 -89
-40 -150 -65 -60 -26 -152 -67 -203 -91 -51 -24 -94 -44 -97 -44 -8 0 -430
-210 -570 -283 -198 -104 -230 -121 -590 -327 -344 -196 -874 -550 -1276 -851
-163 -122 -399 -307 -453 -354 -6 -6 -49 -41 -96 -80 -47 -38 -92 -76 -101
-85 -9 -8 -40 -35 -70 -60 -363 -303 -972 -903 -1335 -1316 -177 -200 -315
-365 -455 -541 -38 -48 -77 -96 -85 -106 -42 -51 -322 -429 -406 -547 -310
-440 -629 -957 -885 -1435 -71 -133 -280 -550 -325 -650 -20 -44 -56 -120 -78
-170 -23 -49 -53 -117 -67 -150 -14 -33 -33 -78 -43 -101 -181 -398 -425
-1091 -596 -1689 -30 -104 -162 -624 -167 -660 -3 -16 -12 -59 -21 -95 -8 -36
-18 -76 -20 -90 -3 -14 -18 -90 -35 -170 -16 -80 -32 -163 -35 -185 -4 -23 -9
-52 -11 -65 -6 -28 -33 -188 -41 -235 -2 -16 -9 -55 -14 -85 -10 -57 -21 -136
-25 -180 -2 -14 -4 -25 -5 -25 -2 0 -7 -31 -15 -100 -3 -27 -8 -66 -12 -85 -3
-19 -7 -51 -9 -70 -1 -19 -6 -62 -9 -95 -4 -33 -9 -73 -10 -90 -2 -16 -4 -30
-5 -30 -1 0 -3 -20 -4 -45 -3 -47 -14 -172 -21 -250 -2 -25 -7 -81 -10 -125
-28 -398 -36 -611 -35 -1045 0 -398 4 -537 26 -875 10 -161 24 -342 29 -385 2
-19 7 -64 10 -100 8 -88 37 -341 51 -440 16 -118 18 -133 43 -300 12 -74 23
-145 25 -156 2 -12 7 -39 10 -60 15 -91 38 -218 41 -224 2 -3 6 -23 9 -45 6
-37 19 -105 32 -165 3 -14 6 -34 8 -45 2 -16 14 -68 21 -95 1 -3 5 -23 9 -45
11 -54 72 -311 97 -410 11 -44 22 -87 24 -95 2 -8 13 -51 25 -95 50 -186 83
-305 105 -375 13 -41 38 -122 56 -180 68 -222 227 -680 240 -695 5 -5 9 -15 9
-23 0 -20 173 -452 252 -632 11 -25 26 -58 33 -75 98 -231 356 -754 520 -1055
59 -107 110 -199 115 -205 4 -5 21 -35 37 -65 126 -232 440 -720 716 -1115 90
-128 444 -596 466 -615 3 -3 24 -27 46 -55 70 -89 228 -277 314 -375 46 -52
99 -113 118 -135 207 -236 676 -713 919 -934 174 -159 239 -217 319 -286 39
-33 72 -62 75 -66 19 -22 478 -393 575 -464 22 -17 49 -38 59 -47 11 -10 38
-30 60 -45 23 -15 43 -30 46 -33 18 -19 354 -258 513 -365 149 -101 193 -129
369 -239 79 -49 166 -103 193 -121 59 -38 407 -240 480 -279 28 -15 79 -43
115 -62 130 -71 568 -292 690 -349 212 -98 221 -102 355 -160 263 -114 580
-240 850 -337 129 -46 457 -156 500 -168 17 -5 107 -31 200 -60 194 -58 262
-77 525 -145 8 -2 40 -11 72 -19 31 -8 67 -17 80 -20 12 -2 61 -13 108 -24
238 -58 706 -152 830 -168 14 -1 41 -6 60 -10 19 -4 44 -8 55 -9 11 -1 36 -5
55 -8 19 -4 53 -9 75 -12 22 -4 51 -8 65 -10 14 -2 61 -9 106 -15 44 -6 89
-12 100 -14 10 -2 49 -7 86 -10 37 -4 77 -9 90 -11 21 -3 67 -8 186 -21 23 -2
61 -6 85 -9 23 -2 71 -7 107 -10 65 -6 99 -8 265 -20 50 -4 113 -8 140 -10
416 -31 1354 -26 1820 10 39 3 99 8 135 10 36 3 88 7 115 10 28 3 77 7 110 10
33 3 76 8 95 10 19 3 62 7 95 10 33 3 110 12 170 20 61 8 133 17 160 20 28 4
75 10 105 15 30 5 75 12 100 15 48 6 120 18 223 36 34 6 73 13 87 15 28 4 82
14 120 21 14 2 104 20 200 39 96 19 188 37 204 40 16 3 32 7 36 9 4 2 20 6 36
9 65 12 249 55 424 100 513 130 1050 302 1542 491 79 31 152 60 163 65 11 5
83 34 160 66 223 90 810 357 885 403 8 5 67 35 130 67 219 111 679 368 798
446 15 10 34 21 42 25 40 18 458 289 650 420 160 110 543 389 626 456 11 9 48
38 84 66 36 28 79 61 95 74 44 35 338 279 351 292 6 5 35 30 64 55 50 42 123
106 160 140 9 8 38 35 66 59 297 266 759 731 1023 1029 13 15 37 43 55 62 17
19 72 82 121 140 50 58 92 107 95 110 3 3 25 30 50 60 25 30 47 57 50 60 40
37 398 503 560 729 127 178 419 610 433 641 3 8 39 66 79 128 l73 114 105 55
c229 121 226 119 242 165 9 24 39 123 67 220 32 108 73 222 105 290 56 119
176 386 176 393 0 3 11 28 24 57 28 63 127 312 167 418 15 41 48 131 74 200
66 177 299 845 309 885 11 47 507 1542 587 1770 37 107 42 130 42 210 -1 98
-14 147 -62 224 l-28 47 13 84 c8 47 16 100 18 120 3 19 8 51 10 70 13 90 24
168 31 235 3 28 8 66 10 85 2 19 7 60 10 90 3 30 7 75 10 100 17 148 32 338
50 635 24 382 23 1194 0 1530 -3 33 -7 98 -9 145 -6 102 -15 222 -21 270 -2
19 -6 71 -10 115 -4 44 -8 89 -10 101 -2 11 -6 52 -10 90 -4 38 -8 79 -10 92
-2 13 -7 53 -10 90 -4 37 -8 74 -10 82 -2 8 -7 42 -10 75 -4 33 -11 87 -17
120 -5 33 -12 74 -14 90 -5 48 -15 115 -20 138 -2 12 -7 38 -10 57 -5 32 -21
124 -44 255 -8 44 -33 174 -44 230 -42 208 -60 290 -72 338 -8 32 -19 77 -24
100 -57 273 -214 822 -347 1217 -126 374 -320 877 -433 1125 -10 22 -35 78
-56 125 -127 289 -360 754 -517 1033 -15 26 -39 68 -53 95 -40 71 -193 332
-219 372 -12 19 -48 78 -80 130 -165 268 -428 653 -649 950 -127 170 -423 544
-495 626 -20 22 -47 53 -61 70 -33 39 -212 246 -225 260 -5 6 -48 53 -95 104
-317 347 -728 750 -1060 1040 -52 46 -111 97 -130 114 -19 17 -75 65 -125 106
-49 41 -92 77 -95 80 -3 3 -30 25 -60 50 -60 49 -58 47 -115 91 -42 32 -71 55
-165 129 -69 55 -94 73 -190 144 -41 31 -79 59 -85 64 -34 28 -377 266 -515
359 -161 107 -469 301 -600 378 -129 75 -246 143 -305 175 -33 18 -80 44 -105
58 -205 115 -720 372 -980 487 -617 274 -1245 503 -1840 669 -91 26 -187 53
-215 61 -98 28 -503 125 -670 160 -93 20 -188 40 -210 45 -22 5 -62 12 -90 16
-27 3 -52 8 -55 9 -5 3 -67 15 -210 39 -14 3 -43 7 -65 11 -22 3 -65 10 -95
15 -30 5 -75 12 -100 15 -25 3 -52 8 -60 10 -8 2 -42 6 -75 10 -33 3 -67 7
-75 10 -8 2 -40 6 -71 10 -31 3 -65 7 -75 9 -11 2 -48 7 -84 10 -36 4 -81 9
-100 11 -85 12 -178 21 -305 30 -44 3 -98 8 -120 11 -22 2 -74 6 -115 9 -41 2
-115 7 -165 10 -49 3 -135 8 -190 11 -102 6 -1052 13 -1057 9z"/>
</g>
</svg>
